<?xml version="1.0" encoding="utf-8"?>
<!-- Generator: Adobe Illustrator 22.1.0, SVG Export Plug-In . SVG Version: 6.00 Build 0)  -->
<svg version="1.1" id="Capa_1" xmlns="http://www.w3.org/2000/svg" xmlns:xlink="http://www.w3.org/1999/xlink" x="0px" y="0px"
	 viewBox="0 0 217.2 49.7" style="enable-background:new 0 0 217.2 49.7;" xml:space="preserve">
<style type="text/css">
	.st0{fill:#3F3F41;}
	.st1{fill:#8E1B22;}
	.st2{fill:#9A9B9C;}
</style>
<g>
	<g>
		<g>
			<path class="st0" d="M10.6,31.4l-6.2-19H4.3c0.2,3.9,0.3,6.5,0.3,7.7v11.3h-4.9V7.2h7.4l6.1,18.5h0.1l6.5-18.5h7.4v24.3h-5.1
				V19.9c0-0.5,0-1.2,0-1.9c0-0.7,0.1-2.6,0.2-5.6h-0.2l-6.6,19H10.6z"/>
		</g>
		<g>
			<path class="st0" d="M47.6,31.4l-1.9-5.8h-9.4l-1.9,5.8h-5.9l9.1-24.4h6.7l9.1,24.4H47.6z M44.5,21.3c-1.7-5.2-2.7-8.2-2.9-8.9
				c-0.2-0.7-0.4-1.2-0.5-1.6c-0.4,1.4-1.5,4.9-3.3,10.5H44.5z"/>
		</g>
		<g>
			<path class="st0" d="M60.4,22.1v9.3h-5.5V7.2h7.5c3.5,0,6.1,0.6,7.8,1.8c1.7,1.2,2.5,3,2.5,5.5c0,1.4-0.4,2.7-1.2,3.8
				c-0.8,1.1-2,2-3.5,2.6c3.9,5.5,6.4,9,7.6,10.6h-6l-6.1-9.3H60.4z M60.4,17.9h1.8c1.7,0,3-0.3,3.8-0.8c0.8-0.5,1.2-1.4,1.2-2.6
				c0-1.1-0.4-2-1.3-2.5c-0.8-0.5-2.1-0.7-3.9-0.7h-1.7V17.9z"/>
		</g>
		<g>
			<path class="st0" d="M86.8,31.4h-5.5v-20h-7V7.2h19.4v4.3h-7V31.4z"/>
		</g>
		<g>
			<path class="st0" d="M96,31.4V7.2h5.5v24.3H96z"/>
		</g>
		<g>
			<path class="st0" d="M128.9,31.4H122l-11.2-18.3h-0.2c0.2,3.2,0.3,5.6,0.3,6.9v11.4h-4.9V7.2h6.9l11.2,18.2h0.1
				c-0.2-3.2-0.3-5.4-0.3-6.7V7.2h4.9V31.4z"/>
		</g>
		<g>
			<path class="st1" d="M148.2,7.2h5.5L145,31.4H139l-8.7-24.3h5.5l4.8,14.4c0.3,0.9,0.5,1.8,0.8,3c0.3,1.1,0.5,1.9,0.5,2.4
				c0.1-1,0.6-2.8,1.3-5.3L148.2,7.2z"/>
		</g>
		<g>
			<path class="st1" d="M170,31.4h-14.8V7.2H170v4.2h-9.4v5.3h8.7v4.2h-8.7v6.3h9.4V31.4z"/>
		</g>
		<g>
			<path class="st1" d="M179,22.1v9.3h-5.5V7.2h7.5c3.5,0,6.1,0.6,7.8,1.8c1.7,1.2,2.5,3,2.5,5.5c0,1.4-0.4,2.7-1.2,3.8
				c-0.8,1.1-2,2-3.5,2.6c3.9,5.5,6.4,9,7.6,10.6h-6l-6.1-9.3H179z M179,17.9h1.8c1.7,0,3-0.3,3.8-0.8c0.8-0.5,1.2-1.4,1.2-2.6
				c0-1.1-0.4-2-1.3-2.5c-0.8-0.5-2.1-0.7-3.9-0.7H179V17.9z"/>
		</g>
		<g>
			<path class="st1" d="M211.2,31.4l-1.9-5.8H200l-1.9,5.8h-5.9l9.1-24.4h6.7l9.1,24.4H211.2z M208.1,21.3c-1.7-5.2-2.7-8.2-2.9-8.9
				c-0.2-0.7-0.4-1.2-0.5-1.6c-0.4,1.4-1.5,4.9-3.3,10.5H208.1z"/>
		</g>
		<g>
			<path class="st1" d="M95.7,5.2V4.8c2-2.2,3.4-3.9,4.1-5h6v0.3c-0.6,0.6-1.7,1.4-3.1,2.6c-1.5,1.1-2.6,2-3.5,2.5H95.7z"/>
		</g>
	</g>
	<g>
		<path class="st2" d="M98.2,41.8c0,1.3-0.4,2.3-1.1,3c-0.7,0.7-1.7,1-3,1H92v-7.9h2.4c1.2,0,2.2,0.3,2.8,1
			C97.9,39.6,98.2,40.6,98.2,41.8z M97.3,41.8c0-1-0.3-1.8-0.8-2.3c-0.5-0.5-1.3-0.8-2.3-0.8h-1.3V45H94c1.1,0,1.9-0.3,2.5-0.8
			C97,43.6,97.3,42.8,97.3,41.8z"/>
		<path class="st2" d="M99.8,38.3c0-0.2,0.1-0.4,0.2-0.4c0.1-0.1,0.2-0.1,0.4-0.1c0.1,0,0.3,0,0.4,0.1c0.1,0.1,0.2,0.2,0.2,0.4
			c0,0.2-0.1,0.4-0.2,0.4c-0.1,0.1-0.2,0.1-0.4,0.1c-0.2,0-0.3,0-0.4-0.1C99.8,38.6,99.8,38.5,99.8,38.3z M100.7,45.8h-0.9v-5.9h0.9
			V45.8z"/>
		<path class="st2" d="M106.4,44.2c0,0.5-0.2,1-0.6,1.3c-0.4,0.3-1,0.4-1.7,0.4c-0.8,0-1.4-0.1-1.8-0.4v-0.8
			c0.3,0.1,0.6,0.3,0.9,0.3c0.3,0.1,0.6,0.1,0.9,0.1c0.5,0,0.8-0.1,1.1-0.2c0.3-0.1,0.4-0.4,0.4-0.7c0-0.2-0.1-0.4-0.3-0.6
			c-0.2-0.2-0.6-0.4-1.2-0.6c-0.5-0.2-0.9-0.4-1.2-0.5c-0.2-0.2-0.4-0.3-0.5-0.5c-0.1-0.2-0.2-0.4-0.2-0.7c0-0.5,0.2-0.9,0.6-1.1
			c0.4-0.3,0.9-0.4,1.6-0.4c0.6,0,1.3,0.1,1.9,0.4l-0.3,0.7c-0.6-0.2-1.1-0.4-1.6-0.4c-0.4,0-0.7,0.1-1,0.2
			c-0.2,0.1-0.3,0.3-0.3,0.5c0,0.2,0,0.3,0.1,0.4c0.1,0.1,0.2,0.2,0.4,0.3c0.2,0.1,0.5,0.2,1,0.4c0.7,0.3,1.2,0.5,1.4,0.8
			C106.3,43.4,106.4,43.8,106.4,44.2z"/>
		<path class="st2" d="M110.4,45.9c-0.9,0-1.6-0.3-2.1-0.8c-0.5-0.5-0.8-1.3-0.8-2.2c0-0.9,0.2-1.7,0.7-2.3c0.5-0.6,1.1-0.8,1.9-0.8
			c0.7,0,1.3,0.2,1.8,0.7c0.4,0.5,0.6,1.1,0.6,1.9V43h-4.1c0,0.7,0.2,1.2,0.5,1.6c0.3,0.4,0.8,0.5,1.4,0.5c0.6,0,1.3-0.1,1.9-0.4
			v0.8c-0.3,0.1-0.6,0.2-0.9,0.3C111.1,45.8,110.8,45.9,110.4,45.9z M110.1,40.5c-0.5,0-0.8,0.2-1.1,0.5c-0.3,0.3-0.4,0.7-0.5,1.3
			h3.1c0-0.6-0.1-1-0.4-1.3C111,40.7,110.6,40.5,110.1,40.5z"/>
		<path class="st2" d="M118.1,45.8V42c0-0.5-0.1-0.8-0.3-1.1c-0.2-0.2-0.6-0.4-1-0.4c-0.6,0-1.1,0.2-1.4,0.5
			c-0.3,0.3-0.4,0.9-0.4,1.6v3.1h-0.9v-5.9h0.7l0.1,0.8h0c0.2-0.3,0.4-0.5,0.8-0.7c0.3-0.2,0.7-0.2,1.1-0.2c0.7,0,1.2,0.2,1.6,0.5
			c0.4,0.3,0.5,0.9,0.5,1.6v3.8H118.1z M117.4,39.1c-0.2,0-0.3,0-0.5-0.1c-0.1-0.1-0.3-0.1-0.4-0.2c-0.1-0.1-0.3-0.2-0.4-0.2
			c-0.1-0.1-0.3-0.1-0.4-0.1c-0.2,0-0.3,0.1-0.4,0.2c-0.1,0.1-0.2,0.3-0.2,0.5h-0.5c0-0.4,0.2-0.8,0.4-1c0.2-0.2,0.5-0.4,0.8-0.4
			c0.2,0,0.3,0,0.5,0.1c0.2,0.1,0.3,0.1,0.4,0.2c0.1,0.1,0.3,0.2,0.4,0.2c0.1,0.1,0.3,0.1,0.4,0.1c0.2,0,0.3-0.1,0.4-0.2
			c0.1-0.1,0.2-0.3,0.2-0.5h0.5c0,0.4-0.2,0.8-0.4,1C118,39,117.8,39.1,117.4,39.1z"/>
		<path class="st2" d="M125.9,42.8c0,1-0.2,1.7-0.7,2.2c-0.5,0.5-1.2,0.8-2,0.8c-0.5,0-1-0.1-1.4-0.4c-0.4-0.2-0.7-0.6-0.9-1.1
			c-0.2-0.5-0.3-1-0.3-1.6c0-1,0.2-1.7,0.7-2.2c0.5-0.5,1.1-0.8,2-0.8c0.8,0,1.5,0.3,2,0.8C125.6,41.1,125.9,41.9,125.9,42.8z
			 M121.4,42.8c0,0.8,0.2,1.3,0.5,1.7c0.3,0.4,0.7,0.6,1.3,0.6c0.6,0,1-0.2,1.3-0.6c0.3-0.4,0.5-1,0.5-1.7c0-0.7-0.2-1.3-0.5-1.7
			c-0.3-0.4-0.7-0.6-1.3-0.6c-0.6,0-1,0.2-1.3,0.6C121.6,41.5,121.4,42.1,121.4,42.8z"/>
		<path class="st2" d="M129.4,39.9h1l1.3,3.4c0.3,0.8,0.5,1.3,0.5,1.7h0c0-0.2,0.1-0.5,0.3-0.9c0.1-0.4,0.6-1.8,1.5-4.1h1l-2.5,6.7
			c-0.3,0.7-0.5,1.1-0.9,1.4c-0.3,0.3-0.7,0.4-1.2,0.4c-0.3,0-0.5,0-0.8-0.1v-0.7c0.2,0,0.4,0.1,0.7,0.1c0.6,0,1-0.3,1.3-1l0.3-0.8
			L129.4,39.9z"/>
		<path class="st2" d="M145.1,41.8c0,1.3-0.4,2.3-1.1,3c-0.7,0.7-1.7,1-3,1h-2.2v-7.9h2.4c1.2,0,2.2,0.3,2.8,1
			C144.8,39.6,145.1,40.6,145.1,41.8z M144.1,41.8c0-1-0.3-1.8-0.8-2.3c-0.5-0.5-1.3-0.8-2.3-0.8h-1.3V45h1.1c1.1,0,1.9-0.3,2.5-0.8
			C143.9,43.6,144.1,42.8,144.1,41.8z"/>
		<path class="st2" d="M149.2,45.9c-0.9,0-1.6-0.3-2.1-0.8c-0.5-0.5-0.8-1.3-0.8-2.2c0-0.9,0.2-1.7,0.7-2.3c0.5-0.6,1.1-0.8,1.9-0.8
			c0.7,0,1.3,0.2,1.8,0.7c0.4,0.5,0.6,1.1,0.6,1.9V43h-4.1c0,0.7,0.2,1.2,0.5,1.6c0.3,0.4,0.8,0.5,1.4,0.5c0.6,0,1.3-0.1,1.9-0.4
			v0.8c-0.3,0.1-0.6,0.2-0.9,0.3C149.9,45.8,149.6,45.9,149.2,45.9z M149,40.5c-0.5,0-0.8,0.2-1.1,0.5c-0.3,0.3-0.4,0.7-0.5,1.3h3.1
			c0-0.6-0.1-1-0.4-1.3C149.8,40.7,149.4,40.5,149,40.5z"/>
		<path class="st2" d="M156.7,44.2c0,0.5-0.2,1-0.6,1.3c-0.4,0.3-1,0.4-1.7,0.4c-0.8,0-1.4-0.1-1.8-0.4v-0.8
			c0.3,0.1,0.6,0.3,0.9,0.3c0.3,0.1,0.6,0.1,0.9,0.1c0.5,0,0.8-0.1,1.1-0.2c0.3-0.1,0.4-0.4,0.4-0.7c0-0.2-0.1-0.4-0.3-0.6
			c-0.2-0.2-0.6-0.4-1.2-0.6c-0.5-0.2-0.9-0.4-1.2-0.5c-0.2-0.2-0.4-0.3-0.5-0.5c-0.1-0.2-0.2-0.4-0.2-0.7c0-0.5,0.2-0.9,0.6-1.1
			c0.4-0.3,0.9-0.4,1.6-0.4c0.6,0,1.3,0.1,1.9,0.4l-0.3,0.7c-0.6-0.2-1.1-0.4-1.6-0.4c-0.4,0-0.7,0.1-1,0.2
			c-0.2,0.1-0.3,0.3-0.3,0.5c0,0.2,0,0.3,0.1,0.4c0.1,0.1,0.2,0.2,0.4,0.3c0.2,0.1,0.5,0.2,1,0.4c0.7,0.3,1.2,0.5,1.4,0.8
			C156.6,43.4,156.7,43.8,156.7,44.2z"/>
		<path class="st2" d="M161.8,45.8l-0.2-0.8h0c-0.3,0.4-0.6,0.6-0.9,0.7c-0.3,0.1-0.7,0.2-1.1,0.2c-0.6,0-1-0.2-1.4-0.5
			c-0.3-0.3-0.5-0.7-0.5-1.3c0-1.2,1-1.8,2.9-1.9l1,0v-0.4c0-0.5-0.1-0.8-0.3-1c-0.2-0.2-0.5-0.3-1-0.3c-0.5,0-1,0.2-1.7,0.5
			l-0.3-0.7c0.3-0.2,0.6-0.3,1-0.4c0.3-0.1,0.7-0.1,1-0.1c0.7,0,1.2,0.2,1.6,0.5c0.3,0.3,0.5,0.8,0.5,1.5v4H161.8z M159.8,45.1
			c0.6,0,1-0.2,1.3-0.5c0.3-0.3,0.5-0.7,0.5-1.3v-0.5l-0.9,0c-0.7,0-1.2,0.1-1.5,0.3c-0.3,0.2-0.5,0.5-0.5,0.9
			c0,0.3,0.1,0.6,0.3,0.7C159.1,45.1,159.4,45.1,159.8,45.1z"/>
		<path class="st2" d="M166.9,39.8c0.3,0,0.5,0,0.7,0.1l-0.1,0.8c-0.2-0.1-0.5-0.1-0.6-0.1c-0.5,0-0.9,0.2-1.2,0.6
			c-0.3,0.4-0.5,0.9-0.5,1.4v3.2h-0.9v-5.9h0.7l0.1,1.1h0c0.2-0.4,0.5-0.7,0.8-0.9C166.2,39.9,166.6,39.8,166.9,39.8z"/>
		<path class="st2" d="M171.4,39.8c0.3,0,0.5,0,0.7,0.1l-0.1,0.8c-0.2-0.1-0.5-0.1-0.6-0.1c-0.5,0-0.9,0.2-1.2,0.6
			c-0.3,0.4-0.5,0.9-0.5,1.4v3.2h-0.9v-5.9h0.7l0.1,1.1h0c0.2-0.4,0.5-0.7,0.8-0.9C170.7,39.9,171.1,39.8,171.4,39.8z"/>
		<path class="st2" d="M178.3,42.8c0,1-0.2,1.7-0.7,2.2c-0.5,0.5-1.2,0.8-2,0.8c-0.5,0-1-0.1-1.4-0.4c-0.4-0.2-0.7-0.6-0.9-1.1
			c-0.2-0.5-0.3-1-0.3-1.6c0-1,0.2-1.7,0.7-2.2c0.5-0.5,1.1-0.8,2-0.8c0.8,0,1.5,0.3,2,0.8C178.1,41.1,178.3,41.9,178.3,42.8z
			 M173.8,42.8c0,0.8,0.2,1.3,0.5,1.7c0.3,0.4,0.7,0.6,1.3,0.6c0.6,0,1-0.2,1.3-0.6c0.3-0.4,0.5-1,0.5-1.7c0-0.7-0.2-1.3-0.5-1.7
			c-0.3-0.4-0.7-0.6-1.3-0.6c-0.6,0-1,0.2-1.3,0.6C174,41.5,173.8,42.1,173.8,42.8z"/>
		<path class="st2" d="M180.8,45.8h-0.9v-8.4h0.9V45.8z"/>
		<path class="st2" d="M183.6,45.8h-0.9v-8.4h0.9V45.8z"/>
		<path class="st2" d="M190.5,42.8c0,1-0.2,1.7-0.7,2.2c-0.5,0.5-1.2,0.8-2,0.8c-0.5,0-1-0.1-1.4-0.4c-0.4-0.2-0.7-0.6-0.9-1.1
			c-0.2-0.5-0.3-1-0.3-1.6c0-1,0.2-1.7,0.7-2.2c0.5-0.5,1.1-0.8,2-0.8c0.8,0,1.5,0.3,2,0.8C190.3,41.1,190.5,41.9,190.5,42.8z
			 M186,42.8c0,0.8,0.2,1.3,0.5,1.7c0.3,0.4,0.7,0.6,1.3,0.6c0.6,0,1-0.2,1.3-0.6c0.3-0.4,0.5-1,0.5-1.7c0-0.7-0.2-1.3-0.5-1.7
			c-0.3-0.4-0.7-0.6-1.3-0.6c-0.6,0-1,0.2-1.3,0.6C186.2,41.5,186,42.1,186,42.8z"/>
		<path class="st2" d="M201.9,45.8H201l-1.6-5.3c-0.1-0.2-0.2-0.5-0.3-0.9c-0.1-0.4-0.1-0.6-0.1-0.6c-0.1,0.5-0.2,1-0.4,1.6
			l-1.5,5.2h-0.9l-2.1-7.9h1l1.2,4.9c0.2,0.7,0.3,1.3,0.4,1.8c0.1-0.7,0.2-1.3,0.4-1.9l1.4-4.8h1l1.5,4.8c0.2,0.6,0.3,1.2,0.4,1.9
			c0.1-0.5,0.2-1.1,0.4-1.9l1.2-4.8h1L201.9,45.8z"/>
		<path class="st2" d="M207.6,45.9c-0.9,0-1.6-0.3-2.1-0.8c-0.5-0.5-0.8-1.3-0.8-2.2c0-0.9,0.2-1.7,0.7-2.3c0.5-0.6,1.1-0.8,1.9-0.8
			c0.7,0,1.3,0.2,1.8,0.7c0.4,0.5,0.6,1.1,0.6,1.9V43h-4.1c0,0.7,0.2,1.2,0.5,1.6c0.3,0.4,0.8,0.5,1.4,0.5c0.6,0,1.3-0.1,1.9-0.4
			v0.8c-0.3,0.1-0.6,0.2-0.9,0.3C208.4,45.8,208,45.9,207.6,45.9z M207.4,40.5c-0.5,0-0.8,0.2-1.1,0.5c-0.3,0.3-0.4,0.7-0.5,1.3h3.1
			c0-0.6-0.1-1-0.4-1.3C208.2,40.7,207.8,40.5,207.4,40.5z"/>
		<path class="st2" d="M214,39.8c0.8,0,1.4,0.3,1.8,0.8c0.4,0.5,0.6,1.3,0.6,2.2s-0.2,1.7-0.6,2.3c-0.4,0.5-1,0.8-1.8,0.8
			c-0.4,0-0.7-0.1-1-0.2c-0.3-0.1-0.6-0.4-0.8-0.7h-0.1l-0.2,0.8h-0.6v-8.4h0.9v2c0,0.5,0,0.9,0,1.2h0
			C212.6,40.1,213.2,39.8,214,39.8z M213.9,40.5c-0.6,0-1,0.2-1.3,0.5c-0.3,0.3-0.4,0.9-0.4,1.8c0,0.8,0.1,1.4,0.4,1.8
			c0.3,0.4,0.7,0.5,1.3,0.5c0.5,0,1-0.2,1.2-0.6c0.3-0.4,0.4-1,0.4-1.7c0-0.8-0.1-1.3-0.4-1.7C214.9,40.7,214.5,40.5,213.9,40.5z"/>
	</g>
</g>
</svg>
